<svg xmlns="http://www.w3.org/2000/svg" width="67" height="75" fill="none"><path fill="#81B3D2" d="M63.55 22.12H37.79c14.36-6.8 15.52-11.1 15-13.5-1.17-3.9-5.92-6.9-10.35-5.3-5.8 2.1-7.4 10.3-8.98 16.2-2-6-3.9-13.6-8.44-17.5a7.94 7.94 0 0 0-6.02-2c-4.22.4-10.24 5.3-7.7 10.8 2.32 5.3 10.02 8.7 15.2 11.4H2.96A2.87 2.87 0 0 0 0 25.02v11.2c0 1.6 1.37 2.8 2.96 2.8h.31V75h60.17V39.01h.11c1.69 0 2.96-1.3 2.96-2.8v-11.2c0-1.6-1.38-2.9-2.96-2.9ZM44.13 5.82c2.21-.3 5.17 1.3 5.49 3.2.42 2.7-3.49 5.2-5.28 6.3-2.64 1.7-5.18 2.6-7.6 4 .84-3.7 2.64-12.9 7.39-13.5Zm-23.86 9.8c-2.32-1.5-6.76-4.4-6.65-7.7.1-3.6 6.01-6.5 9.18-3.8 4.01 3.3 5.91 11 7.4 16.4-3.39-1.6-6.55-2.8-9.93-4.9ZM26.5 72H6.33V39.01H26.5v33Zm0-35.99H3.17v-10.9H26.5v10.9Zm10.55 36h-7.5V25.1h7.5v46.9Zm23.23 0H40.22V39h20.16v33h-.1Zm3.06-36H40.22v-10.9h23.12v10.9Z"/></svg>